<svg width="45" height="35" viewBox="0 0 45 35" fill="none" xmlns="http://www.w3.org/2000/svg">
<path fill-rule="evenodd" clip-rule="evenodd" d="M3.60739 27.4356C7.07012 26.5077 8.16423 23.6655 7.56441 21.427C6.96466 19.1886 4.59598 17.2742 1.13326 18.202C1.03974 17.853 0.933797 17.4905 0.825152 17.1187C-0.181054 13.6757 -1.41917 9.43921 4.83135 7.76439L11.7479 5.91109L12.6476 9.26875C12.7718 9.73235 13.2484 10.0075 13.712 9.88325C14.1756 9.75903 14.4507 9.2825 14.3265 8.81891L13.4268 5.46125L32.1003 0.457693C36.827 -0.808814 39.4845 0.24849 40.971 7.5275C39.2396 7.99141 36.1159 9.55415 37.1716 13.4938C38.2272 17.4335 41.7138 17.225 43.4451 16.7611C45.7973 23.8081 44.0245 26.0526 39.2978 27.3191L20.6243 32.3226L19.7246 28.9649C19.6004 28.5013 19.1238 28.2262 18.6602 28.3504C18.1966 28.4747 17.9215 28.9512 18.0457 29.4148L18.9454 32.7725L12.0288 34.6258C5.77831 36.3006 4.73229 32.0126 3.88221 28.5278C3.79042 28.1515 3.70091 27.7846 3.60739 27.4356ZM16.8087 24.798C16.9329 25.2616 17.4094 25.5367 17.873 25.4125C18.3366 25.2883 18.6117 24.8117 18.4875 24.3481L17.5878 20.9905C17.4636 20.5269 16.9871 20.2518 16.5235 20.376C16.0599 20.5002 15.7848 20.9767 15.909 21.4403L16.8087 24.798ZM13.8847 13.8855C13.7605 13.422 14.0356 12.9454 14.4992 12.8212C14.9628 12.697 15.4393 12.9721 15.5635 13.4357L16.4632 16.7934C16.5874 17.257 16.3123 17.7335 15.8487 17.8577C15.3851 17.9819 14.9086 17.7068 14.7844 17.2432L13.8847 13.8855Z" fill="#F4F4F4"/>
</svg>
