<svg width="170" height="35" viewBox="0 0 170 35" fill="none" xmlns="http://www.w3.org/2000/svg">
<path fill-rule="evenodd" clip-rule="evenodd" d="M3.60739 27.4356C7.07012 26.5077 8.16423 23.6655 7.56441 21.427C6.96466 19.1886 4.59598 17.2742 1.13326 18.202C1.03974 17.853 0.933797 17.4905 0.825152 17.1187C-0.181054 13.6757 -1.41917 9.43921 4.83135 7.76439L11.7479 5.91109L12.6476 9.26875C12.7718 9.73235 13.2484 10.0075 13.712 9.88325C14.1756 9.75903 14.4507 9.2825 14.3265 8.81891L13.4268 5.46125L32.1003 0.457693C36.827 -0.808814 39.4845 0.24849 40.971 7.5275C39.2396 7.99141 36.1159 9.55415 37.1716 13.4938C38.2272 17.4335 41.7138 17.225 43.4451 16.7611C45.7973 23.8081 44.0245 26.0526 39.2978 27.3191L20.6243 32.3226L19.7246 28.9649C19.6004 28.5013 19.1238 28.2262 18.6602 28.3504C18.1966 28.4747 17.9215 28.9512 18.0457 29.4148L18.9454 32.7725L12.0288 34.6258C5.77831 36.3006 4.73229 32.0126 3.88221 28.5278C3.79042 28.1515 3.70091 27.7846 3.60739 27.4356ZM16.8087 24.798C16.9329 25.2616 17.4094 25.5367 17.873 25.4125C18.3366 25.2883 18.6117 24.8117 18.4875 24.3481L17.5878 20.9905C17.4636 20.5269 16.9871 20.2518 16.5235 20.376C16.0599 20.5002 15.7848 20.9767 15.909 21.4403L16.8087 24.798ZM13.8847 13.8855C13.7605 13.422 14.0356 12.9454 14.4992 12.8212C14.9628 12.697 15.4393 12.9721 15.5635 13.4357L16.4632 16.7934C16.5874 17.257 16.3123 17.7335 15.8487 17.8577C15.3851 17.9819 14.9086 17.7068 14.7844 17.2432L13.8847 13.8855Z" fill="#F4F4F4"/>
<path d="M69.7136 8.2C69.8736 8.2 69.9536 8.28 69.9536 8.44V9.976C69.9536 10.136 69.8736 10.216 69.7136 10.216H65.8496C65.7856 10.216 65.7536 10.248 65.7536 10.312V24.76C65.7536 24.92 65.6736 25 65.5136 25H63.6896C63.5296 25 63.4496 24.92 63.4496 24.76V10.312C63.4496 10.248 63.4176 10.216 63.3536 10.216H59.6576C59.4976 10.216 59.4176 10.136 59.4176 9.976V8.44C59.4176 8.28 59.4976 8.2 59.6576 8.2H69.7136ZM73.433 10.864C72.985 10.864 72.617 10.72 72.329 10.432C72.041 10.144 71.897 9.776 71.897 9.328C71.897 8.864 72.041 8.496 72.329 8.224C72.617 7.936 72.985 7.792 73.433 7.792C73.881 7.792 74.249 7.936 74.537 8.224C74.825 8.512 74.969 8.88 74.969 9.328C74.969 9.776 74.817 10.144 74.513 10.432C74.225 10.72 73.865 10.864 73.433 10.864ZM72.497 25C72.337 25 72.257 24.92 72.257 24.76V13.024C72.257 12.864 72.337 12.784 72.497 12.784H74.321C74.481 12.784 74.561 12.864 74.561 13.024V24.76C74.561 24.92 74.481 25 74.321 25H72.497ZM82.0586 25.192C80.8266 25.192 79.8106 24.872 79.0106 24.232C78.2266 23.576 77.7466 22.688 77.5706 21.568C77.4586 20.848 77.4026 19.944 77.4026 18.856C77.4026 17.912 77.4586 17.024 77.5706 16.192C77.7466 15.104 78.2346 14.232 79.0346 13.576C79.8346 12.92 80.8426 12.592 82.0586 12.592C83.2426 12.592 84.2426 12.904 85.0586 13.528C85.8746 14.152 86.3626 14.952 86.5226 15.928L86.6186 16.504C86.6186 16.648 86.5386 16.736 86.3786 16.768L84.5786 16.912H84.5306C84.4346 16.912 84.3706 16.856 84.3386 16.744L84.3146 16.648L84.2666 16.36C84.1866 15.864 83.9466 15.448 83.5466 15.112C83.1466 14.76 82.6426 14.584 82.0346 14.584C81.4266 14.584 80.9226 14.768 80.5226 15.136C80.1386 15.504 79.9066 15.992 79.8266 16.6C79.7466 17.272 79.7066 18.032 79.7066 18.88C79.7066 19.824 79.7546 20.6 79.8506 21.208C79.9306 21.816 80.1626 22.304 80.5466 22.672C80.9306 23.024 81.4266 23.2 82.0346 23.2C82.6586 23.2 83.1706 23.032 83.5706 22.696C83.9706 22.344 84.2026 21.912 84.2666 21.4L84.2906 21.16C84.3066 21 84.3946 20.928 84.5546 20.944L86.3546 21.064C86.5146 21.064 86.5946 21.152 86.5946 21.328L86.5226 21.736C86.3946 22.76 85.9226 23.592 85.1066 24.232C84.2906 24.872 83.2746 25.192 82.0586 25.192ZM89.204 25C89.044 25 88.964 24.92 88.964 24.76V8.44C88.964 8.28 89.044 8.2 89.204 8.2H91.028C91.188 8.2 91.268 8.28 91.268 8.44V17.608C91.268 17.64 91.284 17.664 91.316 17.68C91.348 17.696 91.372 17.688 91.388 17.656L95.132 12.928C95.212 12.832 95.316 12.784 95.444 12.784H97.46C97.556 12.784 97.62 12.816 97.652 12.88C97.684 12.928 97.668 12.992 97.604 13.072L94.82 16.696C94.788 16.76 94.78 16.808 94.796 16.84L98.06 24.712L98.084 24.808C98.084 24.936 98.012 25 97.868 25H95.948C95.82 25 95.732 24.936 95.684 24.808L93.284 18.52C93.252 18.424 93.212 18.416 93.164 18.496L91.316 20.8C91.284 20.864 91.268 20.904 91.268 20.92V24.76C91.268 24.92 91.188 25 91.028 25H89.204ZM104.068 23.2C104.612 23.2 105.068 23.072 105.436 22.816C105.82 22.544 106.108 22.176 106.3 21.712C106.348 21.568 106.444 21.512 106.588 21.544L108.22 21.904C108.38 21.952 108.436 22.048 108.388 22.192C108.084 23.136 107.556 23.872 106.804 24.4C106.052 24.928 105.132 25.192 104.044 25.192C102.796 25.192 101.788 24.88 101.02 24.256C100.252 23.632 99.7641 22.776 99.5561 21.688C99.4761 21.24 99.4201 20.768 99.3881 20.272C99.3721 19.76 99.3641 19.088 99.3641 18.256C99.3641 17.44 99.4041 16.792 99.4841 16.312C99.6281 15.192 100.1 14.296 100.9 13.624C101.7 12.936 102.708 12.592 103.924 12.592C105.252 12.592 106.324 12.968 107.14 13.72C107.956 14.472 108.412 15.464 108.508 16.696C108.556 17.24 108.58 18.24 108.58 19.696C108.58 19.856 108.5 19.936 108.34 19.936H101.764C101.7 19.936 101.668 19.968 101.668 20.032C101.668 20.48 101.692 20.872 101.74 21.208C101.82 21.8 102.068 22.28 102.484 22.648C102.9 23.016 103.428 23.2 104.068 23.2ZM103.948 14.584C103.34 14.584 102.836 14.768 102.436 15.136C102.052 15.504 101.82 15.984 101.74 16.576C101.692 17.008 101.668 17.48 101.668 17.992C101.668 18.056 101.7 18.088 101.764 18.088H106.18C106.244 18.088 106.276 18.056 106.276 17.992C106.244 17.352 106.212 16.888 106.18 16.6C106.1 16.008 105.86 15.528 105.46 15.16C105.06 14.776 104.556 14.584 103.948 14.584ZM116.348 14.32C116.348 14.48 116.268 14.56 116.108 14.56H113.972C113.908 14.56 113.876 14.592 113.876 14.656V21.232C113.876 21.888 114.004 22.352 114.26 22.624C114.532 22.88 114.948 23.008 115.508 23.008H115.964C116.124 23.008 116.204 23.088 116.204 23.248V24.76C116.204 24.92 116.124 25 115.964 25L115.028 25.024C113.908 25.024 113.06 24.816 112.484 24.4C111.924 23.968 111.644 23.176 111.644 22.024V14.656C111.644 14.592 111.612 14.56 111.548 14.56H110.372C110.212 14.56 110.132 14.48 110.132 14.32V13.024C110.132 12.864 110.212 12.784 110.372 12.784H111.548C111.612 12.784 111.644 12.752 111.644 12.688V9.928C111.644 9.768 111.724 9.688 111.884 9.688H113.636C113.796 9.688 113.876 9.768 113.876 9.928V12.688C113.876 12.752 113.908 12.784 113.972 12.784H116.108C116.268 12.784 116.348 12.864 116.348 13.024V14.32ZM124.491 8.176C125.419 8.176 126.235 8.384 126.939 8.8C127.659 9.216 128.211 9.808 128.595 10.576C128.995 11.328 129.195 12.192 129.195 13.168C129.195 14.128 128.995 14.976 128.595 15.712C128.211 16.448 127.659 17.024 126.939 17.44C126.235 17.84 125.427 18.04 124.515 18.04H121.563C121.483 18.04 121.443 18.08 121.443 18.16V24.712C121.443 24.792 121.411 24.864 121.347 24.928C121.299 24.976 121.235 25 121.155 25H118.947C118.867 25 118.795 24.976 118.731 24.928C118.683 24.864 118.659 24.792 118.659 24.712V8.464C118.659 8.384 118.683 8.32 118.731 8.272C118.795 8.208 118.867 8.176 118.947 8.176H124.491ZM124.083 15.808C124.787 15.808 125.347 15.576 125.763 15.112C126.195 14.632 126.411 14 126.411 13.216C126.411 12.416 126.195 11.776 125.763 11.296C125.347 10.816 124.787 10.576 124.083 10.576H121.563C121.483 10.576 121.443 10.616 121.443 10.696V15.688C121.443 15.768 121.483 15.808 121.563 15.808H124.083ZM131.388 25C131.308 25 131.236 24.976 131.172 24.928C131.124 24.864 131.1 24.792 131.1 24.712V8.488C131.1 8.408 131.124 8.344 131.172 8.296C131.236 8.232 131.308 8.2 131.388 8.2H133.596C133.676 8.2 133.74 8.232 133.788 8.296C133.852 8.344 133.884 8.408 133.884 8.488V24.712C133.884 24.792 133.852 24.864 133.788 24.928C133.74 24.976 133.676 25 133.596 25H131.388ZM140.814 12.544C141.726 12.544 142.534 12.72 143.238 13.072C143.942 13.408 144.486 13.88 144.87 14.488C145.27 15.096 145.47 15.792 145.47 16.576V24.712C145.47 24.792 145.438 24.864 145.374 24.928C145.326 24.976 145.262 25 145.182 25H142.974C142.894 25 142.822 24.976 142.758 24.928C142.71 24.864 142.686 24.792 142.686 24.712V24.112C142.686 24.064 142.67 24.032 142.638 24.016C142.606 24 142.574 24.008 142.542 24.04C141.87 24.808 140.902 25.192 139.638 25.192C138.582 25.192 137.686 24.912 136.95 24.352C136.214 23.776 135.846 22.848 135.846 21.568C135.846 20.224 136.27 19.224 137.118 18.568C137.982 17.912 139.166 17.584 140.67 17.584H142.566C142.646 17.584 142.686 17.544 142.686 17.464V16.864C142.686 16.272 142.518 15.808 142.182 15.472C141.862 15.12 141.414 14.944 140.838 14.944C140.374 14.944 139.99 15.056 139.686 15.28C139.398 15.488 139.214 15.776 139.134 16.144C139.086 16.32 138.974 16.408 138.798 16.408L136.47 16.264C136.39 16.264 136.318 16.24 136.254 16.192C136.206 16.128 136.19 16.064 136.206 16C136.302 14.976 136.774 14.144 137.622 13.504C138.486 12.864 139.55 12.544 140.814 12.544ZM140.358 22.936C140.982 22.936 141.526 22.76 141.99 22.408C142.454 22.04 142.686 21.56 142.686 20.968V19.72C142.686 19.64 142.646 19.6 142.566 19.6H140.958C140.254 19.6 139.694 19.752 139.278 20.056C138.878 20.36 138.678 20.8 138.678 21.376C138.678 21.888 138.83 22.28 139.134 22.552C139.454 22.808 139.862 22.936 140.358 22.936ZM152.467 25.192C151.171 25.192 150.107 24.864 149.275 24.208C148.459 23.536 147.963 22.624 147.787 21.472C147.659 20.816 147.595 19.936 147.595 18.832C147.595 17.824 147.659 16.952 147.787 16.216C147.963 15.096 148.467 14.208 149.299 13.552C150.131 12.88 151.187 12.544 152.467 12.544C153.699 12.544 154.739 12.864 155.587 13.504C156.435 14.128 156.947 14.952 157.123 15.976C157.139 16.04 157.155 16.12 157.171 16.216C157.187 16.312 157.195 16.432 157.195 16.576V16.624C157.195 16.768 157.107 16.856 156.931 16.888L154.747 17.104H154.699C154.555 17.104 154.467 17.016 154.435 16.84C154.435 16.728 154.419 16.608 154.387 16.48C154.307 16.048 154.091 15.688 153.739 15.4C153.403 15.096 152.971 14.944 152.443 14.944C151.915 14.944 151.475 15.104 151.123 15.424C150.787 15.744 150.579 16.168 150.499 16.696C150.419 17.304 150.379 18.024 150.379 18.856C150.379 19.768 150.427 20.504 150.523 21.064C150.603 21.592 150.811 22.016 151.147 22.336C151.483 22.64 151.915 22.792 152.443 22.792C152.987 22.792 153.427 22.64 153.763 22.336C154.115 22.016 154.323 21.632 154.387 21.184L154.411 20.944C154.427 20.864 154.467 20.8 154.531 20.752C154.595 20.688 154.667 20.664 154.747 20.68L156.907 20.872C157.099 20.904 157.195 21.008 157.195 21.184L157.147 21.592C157.003 22.68 156.507 23.552 155.659 24.208C154.811 24.864 153.747 25.192 152.467 25.192ZM168.562 16.816C168.61 17.344 168.634 17.952 168.634 18.64L168.61 19.672C168.61 19.864 168.514 19.96 168.322 19.96H161.89C161.81 19.96 161.77 20 161.77 20.08C161.802 20.528 161.834 20.856 161.866 21.064C161.946 21.592 162.17 22.016 162.538 22.336C162.906 22.656 163.37 22.816 163.93 22.816C164.41 22.8 164.81 22.68 165.13 22.456C165.466 22.232 165.722 21.92 165.898 21.52C165.978 21.344 166.098 21.28 166.258 21.328L168.226 21.736C168.418 21.8 168.482 21.92 168.418 22.096C168.098 23.088 167.546 23.856 166.762 24.4C165.994 24.928 165.05 25.192 163.93 25.192C162.602 25.192 161.538 24.872 160.738 24.232C159.938 23.592 159.418 22.704 159.178 21.568C159.098 21.136 159.042 20.68 159.01 20.2C158.994 19.72 158.986 19.08 158.986 18.28C158.986 17.448 159.026 16.816 159.106 16.384C159.266 15.216 159.762 14.288 160.594 13.6C161.426 12.896 162.482 12.544 163.762 12.544C165.154 12.544 166.274 12.936 167.122 13.72C167.986 14.504 168.466 15.536 168.562 16.816ZM163.786 14.944C163.258 14.944 162.818 15.104 162.466 15.424C162.13 15.728 161.922 16.144 161.842 16.672C161.794 17.024 161.77 17.424 161.77 17.872C161.77 17.952 161.81 17.992 161.89 17.992H165.706C165.786 17.992 165.826 17.952 165.826 17.872C165.794 17.328 165.762 16.936 165.73 16.696C165.666 16.168 165.458 15.744 165.106 15.424C164.754 15.104 164.314 14.944 163.786 14.944Z" fill="#F4F4F4"/>
</svg>
